<svg width="760" height="760" viewBox="0 0 760 760" fill="none" xmlns="http://www.w3.org/2000/svg">
<path d="M436 527C410.774 527 387.94 516.771 371.427 500.209C354.896 483.647 344.667 460.772 344.667 435.5C344.667 410.228 334.456 387.353 317.924 370.809C301.393 354.247 278.56 344 253.333 344C228.107 344 205.274 333.771 188.761 317.209C172.229 300.647 162 277.772 162 252.5C162 227.228 172.229 204.353 188.761 187.809C205.274 171.247 228.107 161 253.333 161C278.56 161 301.393 171.247 317.924 187.809C334.456 204.353 344.667 227.228 344.667 252.5C344.667 277.772 354.896 300.647 371.427 317.209C387.94 333.771 410.774 344 436 344C486.453 344 532.891 303.044 532.891 252.5C532.891 227.228 537.563 204.353 554.094 187.809C570.607 171.247 593.44 161 618.667 161C643.893 161 666.726 171.247 683.258 187.809C699.789 204.353 710 227.228 710 252.5C710 303.044 669.119 344 618.667 344C593.44 344 570.607 354.247 554.094 370.809C537.563 387.353 527.333 410.228 527.333 435.5C527.333 486.044 486.453 527 436 527Z" fill="#127CEA"/>
<path d="M216 533.5C216 482.414 174.586 441 123.5 441C72.4137 441 31 482.414 31 533.5C31 584.588 72.4137 626 123.5 626C174.586 626 216 584.588 216 533.5Z" fill="#121212"/>
</svg>
